<mxfile host="app.diagrams.net" modified="2022-06-24T21:17:05.555Z" agent="5.0 (Windows NT 10.0; Win64; x64) AppleWebKit/537.36 (KHTML, like Gecko) Chrome/102.0.5005.124 Safari/537.36 Edg/102.0.1245.44" etag="V5WHRFGplRnl2PtRXkLx" version="20.0.3" type="github">
  <diagram id="ZbqfMjnpPSxgSXeUl58V" name="Page-1">
    <mxGraphModel dx="868" dy="482" grid="1" gridSize="10" guides="1" tooltips="1" connect="1" arrows="1" fold="1" page="1" pageScale="1" pageWidth="827" pageHeight="1169" math="0" shadow="0">
      <root>
        <mxCell id="0" />
        <mxCell id="1" parent="0" />
        <mxCell id="1rPlKMOBmod6xGGunfZM-1" value="&lt;table border=&quot;1&quot; width=&quot;100%&quot; height=&quot;100%&quot; cellpadding=&quot;4&quot; style=&quot;width:100%;height:100%;border-collapse:collapse;&quot;&gt;&lt;tbody&gt;&lt;tr&gt;&lt;th align=&quot;center&quot;&gt;Drivers&lt;/th&gt;&lt;/tr&gt;&lt;tr&gt;&lt;td align=&quot;center&quot;&gt;Id: INTEGER (PK)&lt;br&gt;&lt;/td&gt;&lt;/tr&gt;&lt;tr&gt;&lt;td align=&quot;center&quot;&gt;Name: CHARVAR(30) NN&lt;br&gt;Nickname: CHARVAR(30) NN&lt;br&gt;Age: INTEGER NN&lt;/td&gt;&lt;/tr&gt;&lt;/tbody&gt;&lt;/table&gt;" style="text;html=1;strokeColor=none;fillColor=none;overflow=fill;" vertex="1" parent="1">
          <mxGeometry x="40" y="80" width="170" height="140" as="geometry" />
        </mxCell>
        <mxCell id="1rPlKMOBmod6xGGunfZM-2" value="&lt;table border=&quot;1&quot; width=&quot;100%&quot; height=&quot;100%&quot; cellpadding=&quot;4&quot; style=&quot;width:100%;height:100%;border-collapse:collapse;&quot;&gt;&lt;tbody&gt;&lt;tr&gt;&lt;th align=&quot;center&quot;&gt;F1_Word_winners&lt;/th&gt;&lt;/tr&gt;&lt;tr&gt;&lt;td align=&quot;center&quot;&gt;Id: INTEGER (PK)&lt;br&gt;&lt;/td&gt;&lt;/tr&gt;&lt;tr&gt;&lt;td align=&quot;center&quot;&gt;Date: TIMESTAMP&lt;br&gt;Place: CHARVAR(30)&lt;br&gt;Diver_id:INTEGER (FK)&lt;br&gt;F1_team_id:INTEGER (FK)&lt;br&gt;&lt;br&gt;&lt;/td&gt;&lt;/tr&gt;&lt;/tbody&gt;&lt;/table&gt;" style="text;html=1;strokeColor=none;fillColor=none;overflow=fill;" vertex="1" parent="1">
          <mxGeometry x="350" y="240" width="170" height="140" as="geometry" />
        </mxCell>
        <mxCell id="1rPlKMOBmod6xGGunfZM-3" value="&lt;table border=&quot;1&quot; width=&quot;100%&quot; height=&quot;100%&quot; cellpadding=&quot;4&quot; style=&quot;width:100%;height:100%;border-collapse:collapse;&quot;&gt;&lt;tbody&gt;&lt;tr&gt;&lt;th align=&quot;center&quot;&gt;F1_Teams&lt;/th&gt;&lt;/tr&gt;&lt;tr&gt;&lt;td align=&quot;center&quot;&gt;Id: INTEGER (PK)&lt;br&gt;&lt;/td&gt;&lt;/tr&gt;&lt;tr&gt;&lt;td align=&quot;center&quot;&gt;Name: CHARVAR(30) NN&lt;br&gt;&lt;br&gt;&lt;/td&gt;&lt;/tr&gt;&lt;/tbody&gt;&lt;/table&gt;" style="text;html=1;strokeColor=none;fillColor=none;overflow=fill;" vertex="1" parent="1">
          <mxGeometry x="640" y="80" width="170" height="110" as="geometry" />
        </mxCell>
        <mxCell id="1rPlKMOBmod6xGGunfZM-6" value="" style="edgeStyle=orthogonalEdgeStyle;fontSize=12;html=1;endArrow=ERoneToMany;rounded=0;exitX=0.5;exitY=1;exitDx=0;exitDy=0;entryX=-0.029;entryY=0.579;entryDx=0;entryDy=0;entryPerimeter=0;startArrow=ERone;startFill=0;" edge="1" parent="1" source="1rPlKMOBmod6xGGunfZM-1" target="1rPlKMOBmod6xGGunfZM-2">
          <mxGeometry width="100" height="100" relative="1" as="geometry">
            <mxPoint x="110" y="370" as="sourcePoint" />
            <mxPoint x="280" y="320" as="targetPoint" />
            <Array as="points">
              <mxPoint x="125" y="321" />
            </Array>
          </mxGeometry>
        </mxCell>
        <mxCell id="1rPlKMOBmod6xGGunfZM-8" value="" style="edgeStyle=orthogonalEdgeStyle;fontSize=12;html=1;endArrow=ERoneToMany;rounded=0;startArrow=ERone;startFill=0;exitX=0.647;exitY=1.036;exitDx=0;exitDy=0;exitPerimeter=0;entryX=1.024;entryY=0.571;entryDx=0;entryDy=0;entryPerimeter=0;" edge="1" parent="1" source="1rPlKMOBmod6xGGunfZM-3" target="1rPlKMOBmod6xGGunfZM-2">
          <mxGeometry width="100" height="100" relative="1" as="geometry">
            <mxPoint x="730" y="250" as="sourcePoint" />
            <mxPoint x="570" y="280" as="targetPoint" />
            <Array as="points">
              <mxPoint x="750" y="320" />
            </Array>
          </mxGeometry>
        </mxCell>
        <mxCell id="1rPlKMOBmod6xGGunfZM-10" value="Diver_F1_Team" style="swimlane;fontStyle=0;childLayout=stackLayout;horizontal=1;startSize=30;horizontalStack=0;resizeParent=1;resizeParentMax=0;resizeLast=0;collapsible=1;marginBottom=0;" vertex="1" parent="1">
          <mxGeometry x="314" y="90" width="200" height="90" as="geometry" />
        </mxCell>
        <mxCell id="1rPlKMOBmod6xGGunfZM-11" value="F1_Teams_id: INTEGER (PK, FK)" style="text;strokeColor=none;fillColor=none;align=left;verticalAlign=middle;spacingLeft=4;spacingRight=4;overflow=hidden;points=[[0,0.5],[1,0.5]];portConstraint=eastwest;rotatable=0;" vertex="1" parent="1rPlKMOBmod6xGGunfZM-10">
          <mxGeometry y="30" width="200" height="30" as="geometry" />
        </mxCell>
        <mxCell id="1rPlKMOBmod6xGGunfZM-14" value="Divers_id: INTEGER (PK, FK)" style="text;strokeColor=none;fillColor=none;align=left;verticalAlign=middle;spacingLeft=4;spacingRight=4;overflow=hidden;points=[[0,0.5],[1,0.5]];portConstraint=eastwest;rotatable=0;" vertex="1" parent="1rPlKMOBmod6xGGunfZM-10">
          <mxGeometry y="60" width="200" height="30" as="geometry" />
        </mxCell>
        <mxCell id="1rPlKMOBmod6xGGunfZM-15" value="" style="fontSize=12;html=1;endArrow=ERoneToMany;rounded=0;startArrow=ERone;startFill=0;exitX=1;exitY=0.5;exitDx=0;exitDy=0;" edge="1" parent="1" source="1rPlKMOBmod6xGGunfZM-11" target="1rPlKMOBmod6xGGunfZM-3">
          <mxGeometry width="100" height="100" relative="1" as="geometry">
            <mxPoint x="575.91" y="87.01000000000003" as="sourcePoint" />
            <mxPoint x="349.9999999999999" y="212.99000000000007" as="targetPoint" />
          </mxGeometry>
        </mxCell>
        <mxCell id="1rPlKMOBmod6xGGunfZM-16" value="" style="fontSize=12;html=1;endArrow=ERoneToMany;rounded=0;startArrow=ERone;startFill=0;exitX=-0.01;exitY=0.2;exitDx=0;exitDy=0;entryX=1;entryY=0.5;entryDx=0;entryDy=0;exitPerimeter=0;" edge="1" parent="1" source="1rPlKMOBmod6xGGunfZM-14" target="1rPlKMOBmod6xGGunfZM-1">
          <mxGeometry width="100" height="100" relative="1" as="geometry">
            <mxPoint x="210" y="250" as="sourcePoint" />
            <mxPoint x="336" y="250" as="targetPoint" />
          </mxGeometry>
        </mxCell>
      </root>
    </mxGraphModel>
  </diagram>
</mxfile>
